<?xml version="1.0" encoding="utf-8"?>
<!-- Generator: Adobe Illustrator 21.1.0, SVG Export Plug-In . SVG Version: 6.00 Build 0)  -->
<svg version="1.1" id="Layer_1" xmlns="http://www.w3.org/2000/svg" xmlns:xlink="http://www.w3.org/1999/xlink" x="0px" y="0px"
	 viewBox="0 0 961.5 167.5" style="enable-background:new 0 0 961.5 167.5;" xml:space="preserve">
<style type="text/css">
	.st0{fill:#222A30;}
</style>
<g>
	<path class="st0" d="M367.1,47.5"/>
	<polygon class="st0" points="689.6,127.4 621.2,127.4 621.3,102.9 671.5,102.9 671.5,66.7 621.3,66.7 621.2,42.1 688.3,42.1 
		688.3,5.6 580.9,5.6 580.9,163.9 689.6,163.9 	"/>
	<path class="st0" d="M737.4,142.5c15.7,15.8,35.6,23.6,59.6,23.6c24.2,0,44.2-7.9,59.9-23.6c15.7-15.8,23.5-35.3,23.5-58.5
		c0-23.4-7.8-42.9-23.5-58.6C841.2,9.8,821.3,1.9,797.1,1.9c-24.1,0-44,7.8-59.6,23.5c-15.7,15.7-23.5,35.2-23.5,58.6
		C713.9,107.3,721.7,126.8,737.4,142.5z M767.6,53.4c7.5-8.2,17.3-12.2,29.5-12.2c12.1,0,22,4.1,29.6,12.2
		c7.6,8.2,11.4,18.4,11.4,30.6c0,12-3.8,22.1-11.4,30.3c-7.6,8.2-17.5,12.4-29.6,12.4c-12.1,0-21.9-4.1-29.5-12.4
		c-7.5-8.2-11.3-18.3-11.3-30.3C756.3,71.8,760.1,61.6,767.6,53.4z"/>
	<path class="st0" d="M456.7,118.8c2.7,0.6,5.5,0.9,8.5,1.2c7,0.6,16-0.4,17.4-0.6l21.2,44h46.4l-27.7-55.1
		c7.7-4.9,13.8-11.4,18.2-19.4c4.4-8,6.5-17.4,6.5-28.1c0-17.3-5.8-30.9-17.5-40.9C518.1,10,502,5,481.4,5h-68.6v158.3h43.9V118.8z
		 M456.7,42.4h20.5c9.3,0,16,1.9,20.2,5.6c4.1,3.7,6.2,8.9,6.2,15.5c0,7.5-2.5,13.2-7.6,17.1c-5.1,3.9-12.7,5.9-23,5.9
		c-2.8,0-5.6-0.1-8.3-0.3c-2.7-0.2-5.4-0.5-7.9-0.9V42.4z"/>
	<rect y="4.5" class="st0" width="43.1" height="158.3"/>
	<polygon class="st0" points="961.5,28.7 936.8,28.7 936.8,4.4 923.4,4.4 923.4,28.7 898.8,28.7 898.8,41.4 923.4,41.4 923.4,65.8 
		936.8,65.8 936.8,41.4 961.5,41.4 	"/>
	<polygon class="st0" points="230.7,164.5 230.7,164.5 230.7,4.5 188.5,4.5 188.5,84.9 85.7,3 81.7,0 81.7,3 81.7,162.8 
		123.9,162.8 123.9,82.4 226.9,164.5 230.8,167.5 	"/>
	<path class="st0" d="M346.9,166c4.5,0,9.5-0.4,15.1-1.3c5.6-0.8,10.1-2.2,13.6-4l-0.2-39.5c-3.4,1.8-7.2,3.1-11.4,3.9
		c-4.2,0.8-8.7,1.2-13.5,1.2c-12.7,0-23.2-3.9-31.6-11.8c-8.4-7.9-12.6-18-12.6-30.4c0-12.7,4.2-22.9,12.6-30.7
		c8.4-7.8,18.9-11.7,31.6-11.7c4.8,0,9.3,0.4,13.5,1.3c4.2,0.8,8,2.1,11.4,3.8l0.2-39.5c-3.5-1.8-8.1-3.1-13.6-3.9
		c-5.6-0.8-10.5-1.2-14.9-1.2c-24.2,0-44.2,7.8-60.1,23.4s-23.8,35.1-23.8,58.5c0,23.2,7.9,42.7,23.8,58.4
		C302.9,158.1,322.9,166,346.9,166z"/>
</g>
</svg>
