<?xml version="1.0" encoding="UTF-8" standalone="no"?>
<svg
   xmlns:dc="http://purl.org/dc/elements/1.1/"
   xmlns:cc="http://creativecommons.org/ns#"
   xmlns:rdf="http://www.w3.org/1999/02/22-rdf-syntax-ns#"
   xmlns:svg="http://www.w3.org/2000/svg"
   xmlns="http://www.w3.org/2000/svg"
   viewBox="0 0 1000 250"
   height="250"
   width="1000"
   xml:space="preserve"
   version="1.1"
   id="svg2"><metadata
     id="metadata8"><rdf:RDF><cc:Work
         rdf:about=""><dc:format>image/svg+xml</dc:format><dc:type
           rdf:resource="http://purl.org/dc/dcmitype/StillImage" /><dc:title></dc:title></cc:Work></rdf:RDF></metadata><defs
     id="defs6"><clipPath
       id="clipPath16"
       clipPathUnits="userSpaceOnUse"><path
         id="path18"
         d="M 0,200 800,200 800,0 0,0 0,200 Z" /></clipPath><clipPath
       id="clipPath44"
       clipPathUnits="userSpaceOnUse"><path
         id="path46"
         d="m 409.288,138.153 c -6.495,-7.441 -9.792,-19.304 -9.786,-36.421 l 0,0 c -0.006,-17.115 3.386,-29.09 9.947,-36.649 l 0,0 c 6.561,-7.551 16.575,-11.322 31.319,-11.356 l 0,0 c 14.965,0.034 24.979,3.765 31.475,11.257 l 0,0 c 6.505,7.491 9.796,19.432 9.791,36.548 l 0,0 c 0.005,17.2 -3.375,29.113 -9.936,36.588 l 0,0 c -6.534,7.474 -16.554,11.161 -31.33,11.189 l 0,0 c -14.978,-0.028 -24.987,-3.72 -31.48,-11.156 m 22.284,-67.461 c -2.835,0.959 -5.426,2.68 -7.425,5.247 l 0,0 c -3.982,5.18 -5.669,13.133 -5.704,25.793 l 0,0 c 0.012,9.452 1.003,16.203 3.142,21.216 l 0,0 c 2.106,5.019 5.703,8.215 9.987,9.635 l 0,0 c 2.852,0.958 5.914,1.26 9.196,1.26 l 0,0 c 3.269,0 6.332,-0.285 9.184,-1.237 l 0,0 c 2.841,-0.948 5.43,-2.641 7.43,-5.191 l 0,0 c 3.988,-5.181 5.682,-13.123 5.709,-25.883 l 0,0 c -0.011,-9.43 -0.902,-16.163 -2.958,-21.176 l 0,0 c -2.016,-5.019 -5.586,-8.265 -9.925,-9.664 l 0,0 c -2.879,-0.968 -6.021,-1.27 -9.44,-1.27 l 0,0 c -3.282,0 -6.344,0.306 -9.196,1.27" /></clipPath><linearGradient
       id="linearGradient52"
       spreadMethod="pad"
       gradientTransform="matrix(0,-95.582176,-95.582176,0,440.76767,149.30945)"
       gradientUnits="userSpaceOnUse"
       y2="0"
       x2="1"
       y1="0"
       x1="0"><stop
         id="stop54"
         offset="0"
         style="stop-opacity:1;stop-color:#808285" /><stop
         id="stop56"
         offset="0.0756936"
         style="stop-opacity:1;stop-color:#4c4d4f" /><stop
         id="stop58"
         offset="0.143415"
         style="stop-opacity:1;stop-color:#2b292a" /><stop
         id="stop60"
         offset="0.557637"
         style="stop-opacity:1;stop-color:#231f20" /><stop
         id="stop62"
         offset="0.848473"
         style="stop-opacity:1;stop-color:#231f20" /><stop
         id="stop64"
         offset="0.925263"
         style="stop-opacity:1;stop-color:#515153" /><stop
         id="stop66"
         offset="1"
         style="stop-opacity:1;stop-color:#808285" /></linearGradient><clipPath
       id="clipPath74"
       clipPathUnits="userSpaceOnUse"><path
         id="path76"
         d="m 739.561,180.004 c -4.751,-3.052 -10.259,-6.689 -12.994,-8.801 l 0,0 c -0.384,-0.283 -0.713,-0.556 -0.964,-0.767 l 0,0 0,-114.721 c 1.672,0.006 3.905,0.006 6.21,0.006 l 0,0 c 4.122,0.006 7.019,0.791 8.918,2.695 l 0,0 c 1.916,1.878 3.42,5.504 3.42,12.404 l 0,0 0,98.78 0,13.322 c -1.343,-0.846 -2.924,-1.848 -4.59,-2.918" /></clipPath><linearGradient
       id="linearGradient82"
       spreadMethod="pad"
       gradientTransform="matrix(0,-127.20697,-127.20697,0,734.87701,182.92245)"
       gradientUnits="userSpaceOnUse"
       y2="0"
       x2="1"
       y1="0"
       x1="0"><stop
         id="stop84"
         offset="0"
         style="stop-opacity:1;stop-color:#808285" /><stop
         id="stop86"
         offset="0.0756936"
         style="stop-opacity:1;stop-color:#4c4d4f" /><stop
         id="stop88"
         offset="0.143415"
         style="stop-opacity:1;stop-color:#2b292a" /><stop
         id="stop90"
         offset="0.557637"
         style="stop-opacity:1;stop-color:#231f20" /><stop
         id="stop92"
         offset="0.848473"
         style="stop-opacity:1;stop-color:#231f20" /><stop
         id="stop94"
         offset="0.925263"
         style="stop-opacity:1;stop-color:#515153" /><stop
         id="stop96"
         offset="1"
         style="stop-opacity:1;stop-color:#808285" /></linearGradient><clipPath
       id="clipPath104"
       clipPathUnits="userSpaceOnUse"><path
         id="path106"
         d="m 602.635,148.001 -0.022,0 c -0.045,0 -0.129,-0.012 -0.223,-0.028 l 0,0 c -0.196,-0.028 -0.479,-0.101 -0.741,-0.207 l 0,0 c -0.512,-0.3 -0.786,-0.406 -1.025,-1.381 l 0,0 -9.407,-49.208 -2.501,-17.239 c 0,0 -0.256,-1.822 -0.518,-3.097 l 0,0 c -0.095,-0.467 -0.128,-0.745 -0.345,-1.319 l 0,0 c -0.09,-0.185 -0.095,-0.379 -0.585,-0.942 l 0,0 c -0.267,-0.262 -0.836,-0.857 -2.039,-0.88 l 0,0 c -1.208,0.023 -1.821,0.658 -2.082,0.936 l 0,0 c -0.268,0.323 -0.352,0.529 -0.446,0.701 l 0,0 c -0.151,0.33 -0.217,0.546 -0.307,0.88 l 0,0 c -0.167,0.647 -0.384,1.666 -0.712,3.654 l 0,0 -2.83,17.066 -9.796,49.404 -0.007,0.011 c 0,0 -0.033,0.111 -0.061,0.206 l 0,0 c -0.066,0.189 -0.19,0.451 -0.351,0.679 l 0,0 c -0.39,0.462 -0.568,0.724 -1.57,0.764 l 0,0 -21.628,0 -0.027,0 c -0.045,0 -0.112,-0.012 -0.217,-0.028 l 0,0 c -0.202,-0.028 -0.491,-0.101 -0.736,-0.207 l 0,0 c -0.523,-0.3 -0.836,-0.423 -1.064,-1.403 l 0,0 -9.986,-49.392 -2.328,-17 c 0,-0.033 -0.246,-1.827 -0.485,-3.107 l 0,0 c -0.106,-0.474 -0.129,-0.746 -0.345,-1.342 l 0,0 c -0.106,-0.185 -0.106,-0.39 -0.624,-0.964 l 0,0 c -0.256,-0.268 -0.864,-0.835 -2.006,-0.858 l 0,0 c -1.152,0.017 -1.798,0.618 -2.054,0.914 l 0,0 c -0.285,0.333 -0.39,0.546 -0.468,0.719 l 0,0 c -0.156,0.339 -0.229,0.572 -0.313,0.907 l 0,0 c -0.166,0.658 -0.379,1.671 -0.69,3.665 l 0,0 -2.64,17.027 -9.802,49.397 0,0.012 0,0.011 c -0.011,0.033 -0.039,0.111 -0.073,0.206 l 0,0 c -0.079,0.189 -0.2,0.451 -0.362,0.685 l 0,0 c -0.39,0.456 -0.563,0.718 -1.565,0.758 l 0,0 -18.581,0 22.993,-90.67 c 0.016,-0.039 0.027,-0.112 0.072,-0.206 l 0,0 c 0.089,-0.201 0.228,-0.468 0.417,-0.708 l 0,0 c 0.418,-0.484 0.708,-0.796 1.733,-0.829 l 0,0 21.036,0 c 0.044,0 0.112,0.01 0.223,0.022 l 0,0 c 0.195,0.033 0.495,0.105 0.757,0.222 l 0,0 c 0.547,0.29 0.881,0.458 1.153,1.438 l 0,0 10.51,46.401 1.95,11.111 c 0,0 0.328,1.81 0.618,3.086 l 0,0 c 0.112,0.457 0.156,0.741 0.39,1.304 l 0,0 c 0.094,0.178 0.111,0.367 0.596,0.912 l 0,0 c 0.267,0.246 0.802,0.803 2,0.847 l 0,0 c 1.191,-0.033 1.771,-0.634 2.033,-0.896 l 0,0 c 0.272,-0.307 0.373,-0.507 0.456,-0.668 l 0,0 c 0.162,-0.324 0.234,-0.541 0.34,-0.864 l 0,0 c 0.189,-0.646 0.451,-1.66 0.841,-3.625 l 0,0 2.261,-11.157 11.279,-46.401 0,-0.006 c 0.011,-0.033 0.044,-0.111 0.072,-0.212 l 0,0 c 0.084,-0.189 0.223,-0.468 0.402,-0.695 l 0,0 c 0.428,-0.48 0.684,-0.786 1.703,-0.819 l 0,0 20.636,0 c 0,0 0.117,0.01 0.212,0.022 l 0,0 c 0.206,0.033 0.513,0.105 0.791,0.234 l 0,0 c 0.579,0.29 0.936,0.49 1.237,1.47 l 0,0 23.003,90.697 -18.152,-0.01 z" /></clipPath><linearGradient
       id="linearGradient112"
       spreadMethod="pad"
       gradientTransform="matrix(0,-92.424202,-92.424202,0,555.92993,148.01135)"
       gradientUnits="userSpaceOnUse"
       y2="0"
       x2="1"
       y1="0"
       x1="0"><stop
         id="stop114"
         offset="0"
         style="stop-opacity:1;stop-color:#808285" /><stop
         id="stop116"
         offset="0.0756936"
         style="stop-opacity:1;stop-color:#4c4d4f" /><stop
         id="stop118"
         offset="0.143415"
         style="stop-opacity:1;stop-color:#2b292a" /><stop
         id="stop120"
         offset="0.557637"
         style="stop-opacity:1;stop-color:#231f20" /><stop
         id="stop122"
         offset="0.848473"
         style="stop-opacity:1;stop-color:#231f20" /><stop
         id="stop124"
         offset="0.925263"
         style="stop-opacity:1;stop-color:#515153" /><stop
         id="stop126"
         offset="1"
         style="stop-opacity:1;stop-color:#808285" /></linearGradient><clipPath
       id="clipPath134"
       clipPathUnits="userSpaceOnUse"><path
         id="path136"
         d="m 670.452,149.487 c -15.033,-0.044 -24.468,-3.971 -30.5,-11.612 l 0,0 c -6.065,-7.665 -8.9,-19.823 -8.884,-36.76 l 0,0 c -0.005,-17.066 3.37,-28.868 9.925,-36.26 l 0,0 c 6.523,-7.386 16.537,-11.027 31.28,-11.05 l 0,0 c 8.778,-0.017 18.904,2.078 24.463,4.043 l 0,0 c 0.874,0.324 1.303,0.58 1.614,0.987 l 0,0 c 0.313,0.395 0.747,1.247 0.758,3.359 l 0,0 0,0.11 c -0.011,2.212 -0.006,5.938 -0.038,10.516 l 0,0 c -0.152,-0.033 -0.302,-0.067 -0.469,-0.105 l 0,0 c -8.366,-1.944 -14.698,-3.46 -26.328,-3.438 l 0,0 c -6.422,-0.022 -12.119,1.661 -16.124,5.716 l 0,0 c -4.01,4.066 -5.983,10.119 -5.971,17.934 l 0,0 c 0,0.044 -0.005,0.111 -0.005,0.178 l 0,0 c 0.005,0.412 0.021,1.181 0.234,2.122 l 0,0 c 0.228,0.93 0.59,2.128 1.754,3.208 l 0,0 c 0.763,0.713 1.966,1.203 3.158,1.182 l 0,0 32.439,0 c 7.028,-0.007 10.988,1.475 13.038,3.19 l 0,0 c 2.021,1.722 2.695,3.783 2.712,6.372 l 0,0 0,1.109 c 0.011,9.195 -0.969,17.127 -3.492,23.22 l 0,0 c -2.567,6.11 -6.433,10.437 -12.844,13.156 l 0,0 c -4.266,1.804 -9.752,2.823 -16.687,2.823 l 0,0 -0.033,0 z m -19.439,-35.456 c 0.557,5.251 1.32,9.356 2.903,12.704 l 0,0 c 1.548,3.353 4.227,5.859 7.735,7.013 l 0,0 c 2.318,0.785 4.936,1.092 7.977,1.092 l 0,0 c 6.783,0.044 11.59,-2.702 14.28,-6.306 l 0,0 c 2.702,-3.581 3.471,-7.659 3.487,-10.655 l 0,0 c -0.006,-0.178 -0.006,-0.957 -0.322,-2.033 l 0,0 c -0.324,-1.053 -1.009,-2.522 -2.557,-3.575 l 0,0 c -1.014,-0.703 -2.351,-1.098 -3.788,-1.098 l 0,0 c -25.381,-0.172 -26.952,-0.172 -26.952,-0.172 l 0,0 -0.012,0 -3.069,0 0.318,3.03 z" /></clipPath><linearGradient
       id="linearGradient142"
       spreadMethod="pad"
       gradientTransform="matrix(0,-95.682648,-95.682648,0,667.28827,149.4874)"
       gradientUnits="userSpaceOnUse"
       y2="0"
       x2="1"
       y1="0"
       x1="0"><stop
         id="stop144"
         offset="0"
         style="stop-opacity:1;stop-color:#808285" /><stop
         id="stop146"
         offset="0.0756936"
         style="stop-opacity:1;stop-color:#4c4d4f" /><stop
         id="stop148"
         offset="0.143415"
         style="stop-opacity:1;stop-color:#2b292a" /><stop
         id="stop150"
         offset="0.557637"
         style="stop-opacity:1;stop-color:#231f20" /><stop
         id="stop152"
         offset="0.848473"
         style="stop-opacity:1;stop-color:#231f20" /><stop
         id="stop154"
         offset="0.925263"
         style="stop-opacity:1;stop-color:#515153" /><stop
         id="stop156"
         offset="1"
         style="stop-opacity:1;stop-color:#808285" /></linearGradient><clipPath
       id="clipPath164"
       clipPathUnits="userSpaceOnUse"><path
         id="path166"
         d="m 89.145,168.854 c -3.721,-3.002 -7.118,-6.238 -10.226,-9.658 l 0,0 c 4.734,0.433 9.797,0.668 15.155,0.668 l 0,0 c 11.039,0 24.268,-1.037 38.041,-3.108 l 0,0 c 13.513,-2.027 27.676,-5.119 41.907,-8.466 l 0,0 c 6.678,-1.582 18.565,-6.2 18.565,-6.2 l 0,0 c 0,0 -13.798,-0.472 -18.514,-0.339 l 0,0 c -5.57,0.056 -9.949,-0.067 -16.32,-0.156 l 0,0 c -22.886,-0.295 -44.458,-1.771 -60.398,-5.637 l 0,0 C 81.392,132.105 70.03,126.145 63.669,118.213 l 0,0 c -4.238,-5.302 -6.439,-11.485 -6.45,-19.076 l 0,0 c 0,-2.1 0.273,-6.99 0.546,-9.547 l 0,0 c 0.44,-3.904 1.364,-7.758 2.044,-10.175 l 0,0 C 62.867,68.86 68.097,58.584 75.677,49.126 l 0,0 c 29.631,-37.05 80.45,-42.803 117.026,-16.235 l 0,0 c -24.758,3.124 -55.714,13.462 -93.488,34.46 l 0,0 c -6.283,3.503 -12.298,8.733 -12.298,8.733 l 0,0 c 0,0 6.89,-1.42 11.491,-2.512 l 0,0 c 33.584,-7.97 60.671,-13.411 81.747,-13.411 l 0,0 c 13.723,-0.007 24.573,2.227 32.287,6.699 l 0,0 c 11.15,6.495 14.626,16.899 15.929,30.673 l 0,0 c 1.176,20.458 -5.007,41.556 -19.298,59.434 l 0,0 c -17.033,21.3 -40.827,31.782 -64.916,31.782 l 0,0 c -19.25,0 -38.681,-6.69 -55.012,-19.895" /></clipPath><clipPath
       id="clipPath174"
       clipPathUnits="userSpaceOnUse"><path
         id="path176"
         d="m 55.992651,194.60749 173.876129,0 0,-182.119458 -173.876129,0 0,182.119458 z" /></clipPath><radialGradient
       id="radialGradient178"
       spreadMethod="pad"
       gradientTransform="matrix(144.00836,0,0,-142.50349,179.17265,151.11443)"
       gradientUnits="userSpaceOnUse"
       r="1"
       cy="0"
       cx="0"
       fy="0"
       fx="0"><stop
         id="stop180"
         offset="0"
         style="stop-opacity:1;stop-color:#a3d5ed" /><stop
         id="stop182"
         offset="0.13401492"
         style="stop-opacity:1;stop-color:#a3d5ed" /><stop
         id="stop184"
         offset="0.509491"
         style="stop-opacity:1;stop-color:#0082b6" /><stop
         id="stop186"
         offset="0.6064004"
         style="stop-opacity:1;stop-color:#0082b6" /><stop
         id="stop188"
         offset="0.872635"
         style="stop-opacity:1;stop-color:#00496d" /><stop
         id="stop190"
         offset="0.90421308"
         style="stop-opacity:1;stop-color:#00496d" /><stop
         id="stop192"
         offset="1"
         style="stop-opacity:1;stop-color:#0084b7" /></radialGradient><clipPath
       id="clipPath200"
       clipPathUnits="userSpaceOnUse"><path
         id="path202"
         d="m 55.525,85.798 c 0,0 -0.863,5.447 -0.935,10.927 l 0,0 c -0.384,6.69 0.797,12.571 3.431,17.724 l 0,0 c 2.256,15.695 8.75,30.015 18.303,41.761 l 0,0 C 33.71,151.326 20.766,127.415 55.525,85.798" /></clipPath><clipPath
       id="clipPath210"
       clipPathUnits="userSpaceOnUse"><path
         id="path212"
         d="M 87.407751,83.615382 23.183954,74.334203 12.322322,149.4944 76.546119,158.77558 87.407751,83.615382 Z" /></clipPath><linearGradient
       id="linearGradient214"
       spreadMethod="pad"
       gradientTransform="matrix(-124.72941,-18.025032,-18.025032,124.72941,130.10068,125.20424)"
       gradientUnits="userSpaceOnUse"
       y2="0"
       x2="1"
       y1="0"
       x1="0"><stop
         id="stop216"
         offset="0"
         style="stop-opacity:1;stop-color:#b9e5fb" /><stop
         id="stop218"
         offset="0.0394745"
         style="stop-opacity:1;stop-color:#b9e5fb" /><stop
         id="stop220"
         offset="0.552163"
         style="stop-opacity:1;stop-color:#6dcff6" /><stop
         id="stop222"
         offset="0.555557"
         style="stop-opacity:1;stop-color:#6dcff6" /><stop
         id="stop224"
         offset="0.845535"
         style="stop-opacity:1;stop-color:#00c0f3" /><stop
         id="stop226"
         offset="1"
         style="stop-opacity:1;stop-color:#00c0f3" /></linearGradient><clipPath
       id="clipPath234"
       clipPathUnits="userSpaceOnUse"><path
         id="path236"
         d="m 229.423,87.358 c -1.007,-5.337 -2.879,-9.892 -5.569,-13.714 l 0,0 C 218.49,58.416 208.972,45.167 196.629,35.258 l 0,0 c 40.765,-4.623 57.731,15.06 34.528,62.927 l 0,0 c 0,0 -0.48,-5.498 -1.734,-10.827" /></clipPath><clipPath
       id="clipPath244"
       clipPathUnits="userSpaceOnUse"><path
         id="path246"
         d="m 193.42898,100.26834 58.05966,1.18702 1.30943,-70.309167 -58.05966,-1.187026 -1.30943,70.309173 z" /></clipPath><linearGradient
       id="linearGradient248"
       spreadMethod="pad"
       gradientTransform="matrix(147.80823,3.0219305,2.8842103,-154.86601,141.19578,66.671453)"
       gradientUnits="userSpaceOnUse"
       y2="0"
       x2="1"
       y1="0"
       x1="0"><stop
         id="stop250"
         offset="0"
         style="stop-opacity:1;stop-color:#b9e5fb" /><stop
         id="stop252"
         offset="0.0394745"
         style="stop-opacity:1;stop-color:#b9e5fb" /><stop
         id="stop254"
         offset="0.552163"
         style="stop-opacity:1;stop-color:#6dcff6" /><stop
         id="stop256"
         offset="0.555557"
         style="stop-opacity:1;stop-color:#6dcff6" /><stop
         id="stop258"
         offset="0.845535"
         style="stop-opacity:1;stop-color:#00c0f3" /><stop
         id="stop260"
         offset="1"
         style="stop-opacity:1;stop-color:#00c0f3" /></linearGradient><clipPath
       id="clipPath268"
       clipPathUnits="userSpaceOnUse"><path
         id="path270"
         d="m 94.841,72.499 -0.047,-0.09 -0.084,-0.161 c 40.755,-21.416 76.106,-34.076 101.919,-36.99 l 0,0 c 12.27,9.85 21.748,23.002 27.129,38.115 l 0,0 -0.069,0.037 C 207.3,50.524 161.356,54.101 94.841,72.499" /></clipPath><clipPath
       id="clipPath278"
       clipPathUnits="userSpaceOnUse"><path
         id="path280"
         d="M 122.81014,126.34834 240.63056,64.630975 196.83808,-18.970282 79.017657,42.74708 122.81014,126.34834 Z" /></clipPath><linearGradient
       id="linearGradient282"
       spreadMethod="pad"
       gradientTransform="matrix(30.281643,-15.862302,-15.862302,-30.281643,64.579057,122.39516)"
       gradientUnits="userSpaceOnUse"
       y2="0"
       x2="1"
       y1="0"
       x1="0"><stop
         id="stop284"
         offset="0"
         style="stop-opacity:1;stop-color:#b9e5fb" /><stop
         id="stop286"
         offset="0.0394745"
         style="stop-opacity:1;stop-color:#b9e5fb" /><stop
         id="stop288"
         offset="0.552163"
         style="stop-opacity:1;stop-color:#6dcff6" /><stop
         id="stop290"
         offset="0.555557"
         style="stop-opacity:1;stop-color:#6dcff6" /><stop
         id="stop292"
         offset="0.845535"
         style="stop-opacity:1;stop-color:#00c0f3" /><stop
         id="stop294"
         offset="1"
         style="stop-opacity:1;stop-color:#00c0f3" /></linearGradient><clipPath
       id="clipPath302"
       clipPathUnits="userSpaceOnUse"><path
         id="path304"
         d="M 76.324,156.21 C 66.771,144.464 60.277,130.144 58.021,114.449 l 0,0 c 12.458,24.36 57.508,32.104 124.301,29.308 l 0,0 0.005,0.121 c -34.34,8.899 -64.41,13.279 -88.23,13.279 l 0,0 c -6.383,0 -12.327,-0.311 -17.773,-0.947" /></clipPath><clipPath
       id="clipPath312"
       clipPathUnits="userSpaceOnUse"><path
         id="path314"
         d="m 182.20793,109.53179 -128.410504,5.52525 2.119528,46.85435 128.410506,-5.52525 -2.11953,-46.85435 z" /></clipPath><linearGradient
       id="linearGradient316"
       spreadMethod="pad"
       gradientTransform="matrix(-201.0797,8.6520605,8.8713264,196.10977,279.67198,126.97693)"
       gradientUnits="userSpaceOnUse"
       y2="0"
       x2="1"
       y1="0"
       x1="0"><stop
         id="stop318"
         offset="0"
         style="stop-opacity:1;stop-color:#b9e5fb" /><stop
         id="stop320"
         offset="0.0394745"
         style="stop-opacity:1;stop-color:#b9e5fb" /><stop
         id="stop322"
         offset="0.552163"
         style="stop-opacity:1;stop-color:#6dcff6" /><stop
         id="stop324"
         offset="0.555557"
         style="stop-opacity:1;stop-color:#6dcff6" /><stop
         id="stop326"
         offset="0.845535"
         style="stop-opacity:1;stop-color:#00c0f3" /><stop
         id="stop328"
         offset="1"
         style="stop-opacity:1;stop-color:#00c0f3" /></linearGradient><clipPath
       id="clipPath336"
       clipPathUnits="userSpaceOnUse"><path
         id="path338"
         d="m 346.559,149.885 -0.017,0 c -24.64,-0.056 -36.308,-12.505 -41.795,-20.363 l 0,0 c -1.025,-1.504 -1.191,-2.322 -1.191,-2.907 l 0,0 c -0.035,-0.769 0.444,-1.805 1.359,-3.592 l 0,0 c 0.868,-1.744 1.926,-4.206 1.926,-7.442 l 0,0 0,-55.859 0,-42.925 c 1.393,0.919 3.052,1.999 4.796,3.146 l 0,0 c 4.862,3.198 10.432,6.929 13.105,8.879 l 0,0 c 0.223,0.166 0.441,0.323 0.63,0.468 l 0,0 0,10.114 0,14.063 0,1.633 2.829,1.553 1.087,-0.312 c 5.062,-1.42 7.981,-2.121 14.948,-2.139 l 0,0 c 7.514,0 13.657,0.953 18.565,2.785 l 0,0 c 4.929,1.844 8.649,4.523 11.573,8.194 l 0,0 c 5.843,7.307 8.483,19.12 8.466,36.002 l 0,0 c 0.017,15.651 -2.11,27.687 -7.112,35.613 l 0,0 c -4.991,7.887 -12.565,12.259 -25.326,12.988 l 0,0 c -1.28,0.068 -2.539,0.101 -3.765,0.101 l 0,0 -0.078,0 z m -19.327,-77.631 -1.86,0.635 0,54.349 1.153,0.819 c 4.49,3.269 10.427,6.278 19.745,6.221 l 0,0 c 2.718,0 5.335,-0.417 7.702,-1.637 l 0,0 c 2.384,-1.203 4.361,-3.202 5.821,-5.876 l 0,0 c 2.891,-5.358 4.082,-13.272 4.11,-25.582 l 0,0 c -0.005,-7.318 -0.373,-12.927 -1.231,-17.344 l 0,0 c -0.858,-4.4 -2.234,-7.72 -4.467,-10.137 l 0,0 c -1.47,-1.587 -3.325,-2.69 -5.285,-3.342 l 0,0 c -2.64,-0.879 -5.508,-1.086 -8.684,-1.091 l 0,0 -0.445,0 c -6.962,0 -10.193,0.796 -16.559,2.985" /></clipPath><linearGradient
       id="linearGradient344"
       spreadMethod="pad"
       gradientTransform="matrix(0,-133.08832,-133.08832,0,343.19705,149.8848)"
       gradientUnits="userSpaceOnUse"
       y2="0"
       x2="1"
       y1="0"
       x1="0"><stop
         id="stop346"
         offset="0"
         style="stop-opacity:1;stop-color:#808285" /><stop
         id="stop348"
         offset="0.0756936"
         style="stop-opacity:1;stop-color:#4c4d4f" /><stop
         id="stop350"
         offset="0.143415"
         style="stop-opacity:1;stop-color:#2b292a" /><stop
         id="stop352"
         offset="0.557637"
         style="stop-opacity:1;stop-color:#231f20" /><stop
         id="stop354"
         offset="0.848473"
         style="stop-opacity:1;stop-color:#231f20" /><stop
         id="stop356"
         offset="0.925263"
         style="stop-opacity:1;stop-color:#515153" /><stop
         id="stop358"
         offset="1"
         style="stop-opacity:1;stop-color:#808285" /></linearGradient></defs><g
     transform="matrix(1.25,0,0,-1.25,0,250)"
     id="g10"><g
       id="g12"><g
         clip-path="url(#clipPath16)"
         id="g14"><g
           transform="translate(440.7674,72.1744)"
           id="g20"><path
             id="path22"
             style="fill:#231f20;fill-opacity:1;fill-rule:nonzero;stroke:none"
             d="m 0,0 c -12.432,0 -19.567,4.689 -19.567,29.558 0,24.669 7.135,29.358 19.567,29.358 12.432,0 19.572,-4.489 19.572,-29.558 C 19.572,4.689 13.056,0 0,0 m 0,79.886 c -30.778,0 -44.018,-15.489 -44.018,-50.328 0,-34.872 13.658,-50.756 44.018,-50.756 30.784,0 44.018,15.684 44.018,50.556 C 44.018,64.397 30.36,79.886 0,79.886" /></g><g
           transform="translate(731.8137,52.9699)"
           id="g24"><path
             id="path26"
             style="fill:#231f20;fill-opacity:1;fill-rule:nonzero;stroke:none"
             d="m 0,0 c 8.8,0 15.088,3.353 15.088,17.851 l 0,117.086 c 0,0 -24.05,-14.915 -24.05,-16.469 l 0,-118.485 C -8.962,-0.017 -4.634,0 0,0" /></g><g
           transform="translate(344.1158,72.2462)"
           id="g28"><path
             id="path30"
             style="fill:#231f20;fill-opacity:1;fill-rule:nonzero;stroke:none"
             d="m 0,0 c -7.151,0 -9.597,0.624 -16.113,2.847 l 0,50.94 c 4.289,3.075 9.38,5.715 18.146,5.715 9.775,0 14.882,-6.104 14.882,-30.344 C 16.915,3.459 12.226,0 0,0 m 6.305,80.505 c -28.339,1.465 -42.057,-12.721 -48.067,-21.454 -4.556,-6.601 1.604,-8.216 1.604,-15.495 l 0,-103.859 c 0,0 24.045,15.551 24.045,16.353 l 0,25.392 0.412,0.228 c 5.096,-1.448 8.55,-2.244 15.701,-2.244 30.979,0 41.355,15.484 41.355,49.732 0,31.77 -8.377,49.972 -35.05,51.347" /></g><g
           transform="translate(602.5906,150.7576)"
           id="g32"><path
             id="path34"
             style="fill:#231f20;fill-opacity:1;fill-rule:nonzero;stroke:none"
             d="m 0,0 c 0,0 -3.927,0 -4.662,-3.854 l -9.424,-49.276 -2.512,-17.294 c 0,0 -0.562,-3.887 -0.763,-3.887 0,0 -0.184,0 -0.836,3.876 l -2.812,17.105 -9.831,49.481 c 0,0 -0.763,3.849 -4.684,3.849 l -21.677,0 c 0,0 -3.927,0 -4.707,-3.849 l -10.003,-49.481 -2.323,-17.088 c 0,0 -0.523,-3.893 -0.735,-3.893 0,0 -0.212,0 -0.802,3.881 l -2.656,17.1 -9.82,49.481 c 0,0 -0.774,3.849 -4.69,3.849 l -22.129,0 23.867,-94.123 c 0,0 0.964,-3.804 4.896,-3.804 l 21.059,0 c 0,0 3.921,0 4.785,3.826 l 10.531,46.474 1.978,11.173 c 0,0 0.68,3.871 0.88,3.871 0,0 0.189,0 0.98,-3.849 l 2.272,-11.195 11.28,-46.485 c 0,0 0.935,-3.815 4.856,-3.815 l 20.658,0 c 0,0 3.916,0 4.88,3.804 L 21.733,0.005 0,0 Z" /></g><g
           transform="translate(653.765,113.7522)"
           id="g36"><path
             id="path38"
             style="fill:#231f20;fill-opacity:1;fill-rule:nonzero;stroke:none"
             d="m 0,0 c 1.409,13.651 4.473,18.33 15.868,18.33 12.214,0 15.011,-9.157 15.011,-14.203 0,0 0,-3.932 -3.938,-3.954 C 1.565,0 0,0 0,0 m 52.5,-3.464 c 0,25.035 -6.912,41.951 -35.813,41.951 -30.94,0 -42.141,-16.715 -42.141,-51.125 0,-34.799 13.641,-50.066 43.962,-50.066 9.218,0 19.461,2.122 25.359,4.205 2.111,0.746 4.261,2.005 4.233,7.04 -0.016,2.702 0,7.826 -0.072,14.025 0,0 0,-0.033 -3.821,-0.925 -8.394,-1.944 -14.298,-3.364 -25.699,-3.364 -11.997,0 -19.338,6.093 -19.338,20.909 0,0 -0.189,3.921 2.384,3.921 l 32.443,0 c 14.766,0 18.503,6.115 18.503,12.32 l 0,1.109 z" /></g></g></g><g
       id="g40"><g
         clip-path="url(#clipPath44)"
         id="g42"><g
           id="g48"><g
             id="g50"><path
               id="path68"
               style="fill:url(#linearGradient52);stroke:none"
               d="m 409.288,138.153 c -6.495,-7.441 -9.792,-19.304 -9.786,-36.421 l 0,0 c -0.006,-17.115 3.386,-29.09 9.947,-36.649 l 0,0 c 6.561,-7.551 16.575,-11.322 31.319,-11.356 l 0,0 c 14.965,0.034 24.979,3.765 31.475,11.257 l 0,0 c 6.505,7.491 9.796,19.432 9.791,36.548 l 0,0 c 0.005,17.2 -3.375,29.113 -9.936,36.588 l 0,0 c -6.534,7.474 -16.554,11.161 -31.33,11.189 l 0,0 c -14.978,-0.028 -24.987,-3.72 -31.48,-11.156 m 22.284,-67.461 c -2.835,0.959 -5.426,2.68 -7.425,5.247 l 0,0 c -3.982,5.18 -5.669,13.133 -5.704,25.793 l 0,0 c 0.012,9.452 1.003,16.203 3.142,21.216 l 0,0 c 2.106,5.019 5.703,8.215 9.987,9.635 l 0,0 c 2.852,0.958 5.914,1.26 9.196,1.26 l 0,0 c 3.269,0 6.332,-0.285 9.184,-1.237 l 0,0 c 2.841,-0.948 5.43,-2.641 7.43,-5.191 l 0,0 c 3.988,-5.181 5.682,-13.123 5.709,-25.883 l 0,0 c -0.011,-9.43 -0.902,-16.163 -2.958,-21.176 l 0,0 c -2.016,-5.019 -5.586,-8.265 -9.925,-9.664 l 0,0 c -2.879,-0.968 -6.021,-1.27 -9.44,-1.27 l 0,0 c -3.282,0 -6.344,0.306 -9.196,1.27" /></g></g></g></g><g
       id="g70"><g
         clip-path="url(#clipPath74)"
         id="g72"><g
           id="g78"><g
             id="g80"><path
               id="path98"
               style="fill:url(#linearGradient82);stroke:none"
               d="m 739.561,180.004 c -4.751,-3.052 -10.259,-6.689 -12.994,-8.801 l 0,0 c -0.384,-0.283 -0.713,-0.556 -0.964,-0.767 l 0,0 0,-114.721 c 1.672,0.006 3.905,0.006 6.21,0.006 l 0,0 c 4.122,0.006 7.019,0.791 8.918,2.695 l 0,0 c 1.916,1.878 3.42,5.504 3.42,12.404 l 0,0 0,98.78 0,13.322 c -1.343,-0.846 -2.924,-1.848 -4.59,-2.918" /></g></g></g></g><g
       id="g100"><g
         clip-path="url(#clipPath104)"
         id="g102"><g
           id="g108"><g
             id="g110"><path
               id="path128"
               style="fill:url(#linearGradient112);stroke:none"
               d="m 602.635,148.001 -0.022,0 c -0.045,0 -0.129,-0.012 -0.223,-0.028 l 0,0 c -0.196,-0.028 -0.479,-0.101 -0.741,-0.207 l 0,0 c -0.512,-0.3 -0.786,-0.406 -1.025,-1.381 l 0,0 -9.407,-49.208 -2.501,-17.239 c 0,0 -0.256,-1.822 -0.518,-3.097 l 0,0 c -0.095,-0.467 -0.128,-0.745 -0.345,-1.319 l 0,0 c -0.09,-0.185 -0.095,-0.379 -0.585,-0.942 l 0,0 c -0.267,-0.262 -0.836,-0.857 -2.039,-0.88 l 0,0 c -1.208,0.023 -1.821,0.658 -2.082,0.936 l 0,0 c -0.268,0.323 -0.352,0.529 -0.446,0.701 l 0,0 c -0.151,0.33 -0.217,0.546 -0.307,0.88 l 0,0 c -0.167,0.647 -0.384,1.666 -0.712,3.654 l 0,0 -2.83,17.066 -9.796,49.404 -0.007,0.011 c 0,0 -0.033,0.111 -0.061,0.206 l 0,0 c -0.066,0.189 -0.19,0.451 -0.351,0.679 l 0,0 c -0.39,0.462 -0.568,0.724 -1.57,0.764 l 0,0 -21.628,0 -0.027,0 c -0.045,0 -0.112,-0.012 -0.217,-0.028 l 0,0 c -0.202,-0.028 -0.491,-0.101 -0.736,-0.207 l 0,0 c -0.523,-0.3 -0.836,-0.423 -1.064,-1.403 l 0,0 -9.986,-49.392 -2.328,-17 c 0,-0.033 -0.246,-1.827 -0.485,-3.107 l 0,0 c -0.106,-0.474 -0.129,-0.746 -0.345,-1.342 l 0,0 c -0.106,-0.185 -0.106,-0.39 -0.624,-0.964 l 0,0 c -0.256,-0.268 -0.864,-0.835 -2.006,-0.858 l 0,0 c -1.152,0.017 -1.798,0.618 -2.054,0.914 l 0,0 c -0.285,0.333 -0.39,0.546 -0.468,0.719 l 0,0 c -0.156,0.339 -0.229,0.572 -0.313,0.907 l 0,0 c -0.166,0.658 -0.379,1.671 -0.69,3.665 l 0,0 -2.64,17.027 -9.802,49.397 0,0.012 0,0.011 c -0.011,0.033 -0.039,0.111 -0.073,0.206 l 0,0 c -0.079,0.189 -0.2,0.451 -0.362,0.685 l 0,0 c -0.39,0.456 -0.563,0.718 -1.565,0.758 l 0,0 -18.581,0 22.993,-90.67 c 0.016,-0.039 0.027,-0.112 0.072,-0.206 l 0,0 c 0.089,-0.201 0.228,-0.468 0.417,-0.708 l 0,0 c 0.418,-0.484 0.708,-0.796 1.733,-0.829 l 0,0 21.036,0 c 0.044,0 0.112,0.01 0.223,0.022 l 0,0 c 0.195,0.033 0.495,0.105 0.757,0.222 l 0,0 c 0.547,0.29 0.881,0.458 1.153,1.438 l 0,0 10.51,46.401 1.95,11.111 c 0,0 0.328,1.81 0.618,3.086 l 0,0 c 0.112,0.457 0.156,0.741 0.39,1.304 l 0,0 c 0.094,0.178 0.111,0.367 0.596,0.912 l 0,0 c 0.267,0.246 0.802,0.803 2,0.847 l 0,0 c 1.191,-0.033 1.771,-0.634 2.033,-0.896 l 0,0 c 0.272,-0.307 0.373,-0.507 0.456,-0.668 l 0,0 c 0.162,-0.324 0.234,-0.541 0.34,-0.864 l 0,0 c 0.189,-0.646 0.451,-1.66 0.841,-3.625 l 0,0 2.261,-11.157 11.279,-46.401 0,-0.006 c 0.011,-0.033 0.044,-0.111 0.072,-0.212 l 0,0 c 0.084,-0.189 0.223,-0.468 0.402,-0.695 l 0,0 c 0.428,-0.48 0.684,-0.786 1.703,-0.819 l 0,0 20.636,0 c 0,0 0.117,0.01 0.212,0.022 l 0,0 c 0.206,0.033 0.513,0.105 0.791,0.234 l 0,0 c 0.579,0.29 0.936,0.49 1.237,1.47 l 0,0 23.003,90.697 -18.152,-0.01 z" /></g></g></g></g><g
       id="g130"><g
         clip-path="url(#clipPath134)"
         id="g132"><g
           id="g138"><g
             id="g140"><path
               id="path158"
               style="fill:url(#linearGradient142);stroke:none"
               d="m 670.452,149.487 c -15.033,-0.044 -24.468,-3.971 -30.5,-11.612 l 0,0 c -6.065,-7.665 -8.9,-19.823 -8.884,-36.76 l 0,0 c -0.005,-17.066 3.37,-28.868 9.925,-36.26 l 0,0 c 6.523,-7.386 16.537,-11.027 31.28,-11.05 l 0,0 c 8.778,-0.017 18.904,2.078 24.463,4.043 l 0,0 c 0.874,0.324 1.303,0.58 1.614,0.987 l 0,0 c 0.313,0.395 0.747,1.247 0.758,3.359 l 0,0 0,0.11 c -0.011,2.212 -0.006,5.938 -0.038,10.516 l 0,0 c -0.152,-0.033 -0.302,-0.067 -0.469,-0.105 l 0,0 c -8.366,-1.944 -14.698,-3.46 -26.328,-3.438 l 0,0 c -6.422,-0.022 -12.119,1.661 -16.124,5.716 l 0,0 c -4.01,4.066 -5.983,10.119 -5.971,17.934 l 0,0 c 0,0.044 -0.005,0.111 -0.005,0.178 l 0,0 c 0.005,0.412 0.021,1.181 0.234,2.122 l 0,0 c 0.228,0.93 0.59,2.128 1.754,3.208 l 0,0 c 0.763,0.713 1.966,1.203 3.158,1.182 l 0,0 32.439,0 c 7.028,-0.007 10.988,1.475 13.038,3.19 l 0,0 c 2.021,1.722 2.695,3.783 2.712,6.372 l 0,0 0,1.109 c 0.011,9.195 -0.969,17.127 -3.492,23.22 l 0,0 c -2.567,6.11 -6.433,10.437 -12.844,13.156 l 0,0 c -4.266,1.804 -9.752,2.823 -16.687,2.823 l 0,0 -0.033,0 z m -19.439,-35.456 c 0.557,5.251 1.32,9.356 2.903,12.704 l 0,0 c 1.548,3.353 4.227,5.859 7.735,7.013 l 0,0 c 2.318,0.785 4.936,1.092 7.977,1.092 l 0,0 c 6.783,0.044 11.59,-2.702 14.28,-6.306 l 0,0 c 2.702,-3.581 3.471,-7.659 3.487,-10.655 l 0,0 c -0.006,-0.178 -0.006,-0.957 -0.322,-2.033 l 0,0 c -0.324,-1.053 -1.009,-2.522 -2.557,-3.575 l 0,0 c -1.014,-0.703 -2.351,-1.098 -3.788,-1.098 l 0,0 c -25.381,-0.172 -26.952,-0.172 -26.952,-0.172 l 0,0 -0.012,0 -3.069,0 0.318,3.03 z" /></g></g></g></g><g
       id="g160"><g
         clip-path="url(#clipPath164)"
         id="g162"><g
           id="g168"><g
             id="g170"><g
               clip-path="url(#clipPath174)"
               id="g172"><path
                 id="path194"
                 style="fill:url(#radialGradient178);stroke:none"
                 d="m 89.145,168.854 c -3.721,-3.002 -7.118,-6.238 -10.226,-9.658 l 0,0 c 4.734,0.433 9.797,0.668 15.155,0.668 l 0,0 c 11.039,0 24.268,-1.037 38.041,-3.108 l 0,0 c 13.513,-2.027 27.676,-5.119 41.907,-8.466 l 0,0 c 6.678,-1.582 18.565,-6.2 18.565,-6.2 l 0,0 c 0,0 -13.798,-0.472 -18.514,-0.339 l 0,0 c -5.57,0.056 -9.949,-0.067 -16.32,-0.156 l 0,0 c -22.886,-0.295 -44.458,-1.771 -60.398,-5.637 l 0,0 C 81.392,132.105 70.03,126.145 63.669,118.213 l 0,0 c -4.238,-5.302 -6.439,-11.485 -6.45,-19.076 l 0,0 c 0,-2.1 0.273,-6.99 0.546,-9.547 l 0,0 c 0.44,-3.904 1.364,-7.758 2.044,-10.175 l 0,0 C 62.867,68.86 68.097,58.584 75.677,49.126 l 0,0 c 29.631,-37.05 80.45,-42.803 117.026,-16.235 l 0,0 c -24.758,3.124 -55.714,13.462 -93.488,34.46 l 0,0 c -6.283,3.503 -12.298,8.733 -12.298,8.733 l 0,0 c 0,0 6.89,-1.42 11.491,-2.512 l 0,0 c 33.584,-7.97 60.671,-13.411 81.747,-13.411 l 0,0 c 13.723,-0.007 24.573,2.227 32.287,6.699 l 0,0 c 11.15,6.495 14.626,16.899 15.929,30.673 l 0,0 c 1.176,20.458 -5.007,41.556 -19.298,59.434 l 0,0 c -17.033,21.3 -40.827,31.782 -64.916,31.782 l 0,0 c -19.25,0 -38.681,-6.69 -55.012,-19.895" /></g></g></g></g></g><g
       id="g196"><g
         clip-path="url(#clipPath200)"
         id="g198"><g
           id="g204"><g
             id="g206"><g
               clip-path="url(#clipPath210)"
               id="g208"><path
                 id="path228"
                 style="fill:url(#linearGradient214);stroke:none"
                 d="m 55.525,85.798 c 0,0 -0.863,5.447 -0.935,10.927 l 0,0 c -0.384,6.69 0.797,12.571 3.431,17.724 l 0,0 c 2.256,15.695 8.75,30.015 18.303,41.761 l 0,0 C 33.71,151.326 20.766,127.415 55.525,85.798" /></g></g></g></g></g><g
       id="g230"><g
         clip-path="url(#clipPath234)"
         id="g232"><g
           id="g238"><g
             id="g240"><g
               clip-path="url(#clipPath244)"
               id="g242"><path
                 id="path262"
                 style="fill:url(#linearGradient248);stroke:none"
                 d="m 229.423,87.358 c -1.007,-5.337 -2.879,-9.892 -5.569,-13.714 l 0,0 C 218.49,58.416 208.972,45.167 196.629,35.258 l 0,0 c 40.765,-4.623 57.731,15.06 34.528,62.927 l 0,0 c 0,0 -0.48,-5.498 -1.734,-10.827" /></g></g></g></g></g><g
       id="g264"><g
         clip-path="url(#clipPath268)"
         id="g266"><g
           id="g272"><g
             id="g274"><g
               clip-path="url(#clipPath278)"
               id="g276"><path
                 id="path296"
                 style="fill:url(#linearGradient282);stroke:none"
                 d="m 94.841,72.499 -0.047,-0.09 -0.084,-0.161 c 40.755,-21.416 76.106,-34.076 101.919,-36.99 l 0,0 c 12.27,9.85 21.748,23.002 27.129,38.115 l 0,0 -0.069,0.037 C 207.3,50.524 161.356,54.101 94.841,72.499" /></g></g></g></g></g><g
       id="g298"><g
         clip-path="url(#clipPath302)"
         id="g300"><g
           id="g306"><g
             id="g308"><g
               clip-path="url(#clipPath312)"
               id="g310"><path
                 id="path330"
                 style="fill:url(#linearGradient316);stroke:none"
                 d="M 76.324,156.21 C 66.771,144.464 60.277,130.144 58.021,114.449 l 0,0 c 12.458,24.36 57.508,32.104 124.301,29.308 l 0,0 0.005,0.121 c -34.34,8.899 -64.41,13.279 -88.23,13.279 l 0,0 c -6.383,0 -12.327,-0.311 -17.773,-0.947" /></g></g></g></g></g><g
       id="g332"><g
         clip-path="url(#clipPath336)"
         id="g334"><g
           id="g340"><g
             id="g342"><path
               id="path360"
               style="fill:url(#linearGradient344);stroke:none"
               d="m 346.559,149.885 -0.017,0 c -24.64,-0.056 -36.308,-12.505 -41.795,-20.363 l 0,0 c -1.025,-1.504 -1.191,-2.322 -1.191,-2.907 l 0,0 c -0.035,-0.769 0.444,-1.805 1.359,-3.592 l 0,0 c 0.868,-1.744 1.926,-4.206 1.926,-7.442 l 0,0 0,-55.859 0,-42.925 c 1.393,0.919 3.052,1.999 4.796,3.146 l 0,0 c 4.862,3.198 10.432,6.929 13.105,8.879 l 0,0 c 0.223,0.166 0.441,0.323 0.63,0.468 l 0,0 0,10.114 0,14.063 0,1.633 2.829,1.553 1.087,-0.312 c 5.062,-1.42 7.981,-2.121 14.948,-2.139 l 0,0 c 7.514,0 13.657,0.953 18.565,2.785 l 0,0 c 4.929,1.844 8.649,4.523 11.573,8.194 l 0,0 c 5.843,7.307 8.483,19.12 8.466,36.002 l 0,0 c 0.017,15.651 -2.11,27.687 -7.112,35.613 l 0,0 c -4.991,7.887 -12.565,12.259 -25.326,12.988 l 0,0 c -1.28,0.068 -2.539,0.101 -3.765,0.101 l 0,0 -0.078,0 z m -19.327,-77.631 -1.86,0.635 0,54.349 1.153,0.819 c 4.49,3.269 10.427,6.278 19.745,6.221 l 0,0 c 2.718,0 5.335,-0.417 7.702,-1.637 l 0,0 c 2.384,-1.203 4.361,-3.202 5.821,-5.876 l 0,0 c 2.891,-5.358 4.082,-13.272 4.11,-25.582 l 0,0 c -0.005,-7.318 -0.373,-12.927 -1.231,-17.344 l 0,0 c -0.858,-4.4 -2.234,-7.72 -4.467,-10.137 l 0,0 c -1.47,-1.587 -3.325,-2.69 -5.285,-3.342 l 0,0 c -2.64,-0.879 -5.508,-1.086 -8.684,-1.091 l 0,0 -0.445,0 c -6.962,0 -10.193,0.796 -16.559,2.985" /></g></g></g></g></g></svg>